<svg width="14" height="14" viewBox="0 0 14 14" fill="none" xmlns="http://www.w3.org/2000/svg">
<g clip-path="url(#clip0_1023_3457)">
<path d="M6.99984 12.8334C3.77809 12.8334 1.1665 10.2218 1.1665 7.00008C1.1665 3.77833 3.77809 1.16675 6.99984 1.16675C10.2216 1.16675 12.8332 3.77833 12.8332 7.00008C12.8332 10.2218 10.2216 12.8334 6.99984 12.8334ZM6.99984 11.6667C8.23751 11.6667 9.4245 11.1751 10.2997 10.2999C11.1748 9.42474 11.6665 8.23776 11.6665 7.00008C11.6665 5.7624 11.1748 4.57542 10.2997 3.70025C9.4245 2.82508 8.23751 2.33341 6.99984 2.33341C5.76216 2.33341 4.57518 2.82508 3.70001 3.70025C2.82484 4.57542 2.33317 5.7624 2.33317 7.00008C2.33317 8.23776 2.82484 9.42474 3.70001 10.2999C4.57518 11.1751 5.76216 11.6667 6.99984 11.6667ZM7.58317 7.00008H9.9165V8.16675H6.4165V4.08341H7.58317V7.00008Z" fill="#616161"/>
</g>
<defs>
<clipPath id="clip0_1023_3457">
<rect width="14" height="14" fill="white"/>
</clipPath>
</defs>
</svg>
