<svg xmlns="http://www.w3.org/2000/svg" width="32.003" height="25.602" viewBox="0 0 32.003 25.602">
  <path id="icons8-image_1_" data-name="icons8-image(1)" d="M7.6,9A2.417,2.417,0,0,0,5,11.6V33a1.6,1.6,0,0,0,1.6,1.6H35.4a1.592,1.592,0,0,0,1.156-.5c.012-.012.021-.026.033-.039A1.589,1.589,0,0,0,37,33V11.6A2.417,2.417,0,0,0,34.4,9Zm1,1.8H33.4a1.681,1.681,0,0,1,1.8,1.8V29.093l-5.126-5.63a3.615,3.615,0,0,0-4.9.006l-6.012,5.744-3.574-3.26a3.612,3.612,0,0,0-4.705.008L6.8,30.346V12.6A1.681,1.681,0,0,1,8.6,10.8Zm6.8,3.546a2.463,2.463,0,1,0,2.463,2.463A2.463,2.463,0,0,0,15.4,14.346Z" transform="translate(-5 -9)" fill="#d8ebeb"/>
</svg>
